<?xml version="1.0" encoding="UTF-8" standalone="no"?>
<!-- Created with Inkscape (http://www.inkscape.org/) -->

<svg
   xmlns:dc="http://purl.org/dc/elements/1.1/"
   xmlns:cc="http://creativecommons.org/ns#"
   xmlns:rdf="http://www.w3.org/1999/02/22-rdf-syntax-ns#"
   xmlns:svg="http://www.w3.org/2000/svg"
   xmlns="http://www.w3.org/2000/svg"
   xmlns:sodipodi="http://sodipodi.sourceforge.net/DTD/sodipodi-0.dtd"
   xmlns:inkscape="http://www.inkscape.org/namespaces/inkscape"
   width="56.330292mm"
   height="73.923576mm"
   viewBox="0 0 56.330292 73.923576"
   version="1.1"
   id="svg8"
   sodipodi:docname="borsa istanbul.svg"
   inkscape:version="0.92.3 (2405546, 2018-03-11)">
  <defs
     id="defs2">
    <clipPath
       id="clipPath36"
       clipPathUnits="userSpaceOnUse">
      <path
         inkscape:connector-curvature="0"
         id="path34"
         d="M 0,0 H 595.276 V 841.89 H 0 Z" />
    </clipPath>
    <radialGradient
       id="radialGradient60"
       spreadMethod="pad"
       gradientTransform="matrix(20.255405,0,0,-20.45017,300.46243,96.204285)"
       gradientUnits="userSpaceOnUse"
       r="1"
       cy="0"
       cx="0"
       fy="0"
       fx="0">
      <stop
         id="stop54"
         offset="0"
         style="stop-opacity:1;stop-color:#9ecdd9" />
      <stop
         id="stop56"
         offset="0.7527"
         style="stop-opacity:1;stop-color:#0096ad" />
      <stop
         id="stop58"
         offset="1"
         style="stop-opacity:1;stop-color:#77becf" />
    </radialGradient>
    <clipPath
       id="clipPath70"
       clipPathUnits="userSpaceOnUse">
      <path
         inkscape:connector-curvature="0"
         id="path68"
         d="M 0,0 H 595.276 V 841.89 H 0 Z" />
    </clipPath>
    <clipPath
       id="clipPath90"
       clipPathUnits="userSpaceOnUse">
      <path
         inkscape:connector-curvature="0"
         id="path88"
         d="M 0,0 H 595.276 V 841.89 H 0 Z" />
    </clipPath>
    <clipPath
       id="clipPath110"
       clipPathUnits="userSpaceOnUse">
      <path
         inkscape:connector-curvature="0"
         id="path108"
         d="M 0,0 H 595.276 V 841.89 H 0 Z" />
    </clipPath>
    <clipPath
       id="clipPath134"
       clipPathUnits="userSpaceOnUse">
      <path
         inkscape:connector-curvature="0"
         id="path132"
         d="M 0,0 H 595.276 V 841.89 H 0 Z" />
    </clipPath>
    <clipPath
       id="clipPath154"
       clipPathUnits="userSpaceOnUse">
      <path
         inkscape:connector-curvature="0"
         id="path152"
         d="M 0,0 H 595.276 V 841.89 H 0 Z" />
    </clipPath>
    <clipPath
       id="clipPath198"
       clipPathUnits="userSpaceOnUse">
      <path
         inkscape:connector-curvature="0"
         id="path196"
         d="M 0,0 H 595.276 V 841.89 H 0 Z" />
    </clipPath>
    <clipPath
       id="clipPath218"
       clipPathUnits="userSpaceOnUse">
      <path
         inkscape:connector-curvature="0"
         id="path216"
         d="M 0,0 H 595.276 V 841.89 H 0 Z" />
    </clipPath>
    <clipPath
       id="clipPath242"
       clipPathUnits="userSpaceOnUse">
      <path
         inkscape:connector-curvature="0"
         id="path240"
         d="M 0,0 H 595.276 V 841.89 H 0 Z" />
    </clipPath>
    <clipPath
       id="clipPath262"
       clipPathUnits="userSpaceOnUse">
      <path
         inkscape:connector-curvature="0"
         id="path260"
         d="M 0,0 H 595.276 V 841.89 H 0 Z" />
    </clipPath>
    <radialGradient
       id="radialGradient60-8"
       spreadMethod="pad"
       gradientTransform="matrix(7.1456565,0,0,7.2143653,11.667284,286.93148)"
       gradientUnits="userSpaceOnUse"
       r="1"
       cy="0"
       cx="0"
       fy="0"
       fx="0">
      <stop
         id="stop54-0"
         offset="0"
         style="stop-opacity:1;stop-color:#9ecdd9" />
      <stop
         id="stop56-1"
         offset="0.7527"
         style="stop-opacity:1;stop-color:#0096ad" />
      <stop
         id="stop58-8"
         offset="1"
         style="stop-opacity:1;stop-color:#77becf" />
    </radialGradient>
  </defs>
  <sodipodi:namedview
     id="base"
     pagecolor="#00ffff"
     bordercolor="#666666"
     borderopacity="1.0"
     inkscape:pageopacity="0"
     inkscape:pageshadow="2"
     inkscape:zoom="0.49497475"
     inkscape:cx="928.03497"
     inkscape:cy="-383.9606"
     inkscape:document-units="mm"
     inkscape:current-layer="layer1"
     showgrid="false"
     inkscape:window-width="1920"
     inkscape:window-height="1001"
     inkscape:window-x="-9"
     inkscape:window-y="-9"
     inkscape:window-maximized="1"
     fit-margin-top="0"
     fit-margin-left="0"
     fit-margin-right="0"
     fit-margin-bottom="0" />
  <metadata
     id="metadata5">
    <rdf:RDF>
      <cc:Work
         rdf:about="">
        <dc:format>image/svg+xml</dc:format>
        <dc:type
           rdf:resource="http://purl.org/dc/dcmitype/StillImage" />
        <dc:title></dc:title>
      </cc:Work>
    </rdf:RDF>
  </metadata>
  <g
     inkscape:label="Layer 1"
     inkscape:groupmode="layer"
     id="layer1"
     transform="translate(-72.872026,-14.684797)">
    <g
       id="g567"
       transform="matrix(4.4191787,0,0,4.4191787,53.202143,-1247.2667)">
      <path
         d="m 6.511285,288.87327 c -0.5453944,2.03553 0.4074583,4.11868 2.1822833,5.08071 v 0 c -0.7789334,-0.5842 -1.2149667,-1.54905 -1.1041944,-2.54565 v 0 c 0.016227,-0.22578 0.058561,-0.44273 0.1171223,-0.65158 v 0 c 0.1615721,-0.4579 0.1262944,-0.53446 1.220611,-1.97167 v 0 c 0.746125,-0.97896 0.9867194,-1.7526 1.0463388,-2.26942 v 0 c 0.075847,0.17921 0.521758,1.12747 0.972961,2.15159 v 0 c 0.05468,0.15169 0.06773,0.33337 0.01905,0.55174 v 0 c -0.275519,1.24425 -2.5114248,1.43687 -1.2961054,2.31246 v 0 c 1.2894024,0.92887 1.1609914,1.86972 0.1979083,2.85891 v 0 c 0.2681111,0.0589 0.5358691,0.0928 0.8018641,0.10231 v 0 c 1.406172,-0.99025 1.200855,-2.15759 -0.08855,-3.08645 v 0 c -1.2160254,-0.8756 1.000125,-0.96274 1.275644,-2.20734 v 0 c 0.05221,-0.236 0.0035,-0.46178 -0.101247,-0.66992 v 0 c 0.786694,-0.56938 1.468261,-1.04352 1.573036,-1.12501 v 0 c -0.208492,0.47625 -0.390525,1.26859 -0.232833,2.49837 v 0 c 0.201436,1.57551 0.172508,1.8027 0.101952,2.15971 v 0 c -0.05609,0.26317 -0.139347,0.52705 -0.263172,0.78317 v 0 c -0.403225,0.91581 -1.262239,1.53176 -2.227086,1.64853 v 0 c 2.017889,0.0543 3.885494,-1.27353 4.430889,-3.30906 v 0 c 0.638175,-2.38231 -0.775406,-4.83059 -3.157361,-5.46911 v 0 c -0.386997,-0.10337 -0.776464,-0.15311 -1.158522,-0.15311 v 0 c -1.9716754,0 -3.7761337,1.31551 -4.310592,3.31082 m 4.474986,-2.09867 0.883356,-0.66817 0.441677,1.02306 -0.0056,-3.5e-4 0.0053,10e-4 -0.884061,0.66781 -0.440972,-1.02271 0.0049,10e-4 z"
         style="fill:url(#radialGradient60-8);stroke:none;stroke-width:0.35277775"
         id="path62-3"
         inkscape:connector-curvature="0" />
      <path
         d="m 8.2420827,299.35002 c -0.2159,0 -0.4123973,-0.0346 -0.5891389,-0.10513 -0.1763888,-0.0695 -0.3280834,-0.16968 -0.454025,-0.30056 -0.1262944,-0.13124 -0.223661,-0.28999 -0.2931582,-0.47731 -0.069145,-0.18733 -0.1037167,-0.39935 -0.1037167,-0.63571 0,-0.2346 0.034572,-0.44591 0.1037167,-0.63323 0.069497,-0.18733 0.1668638,-0.34608 0.2931582,-0.47625 0.1259416,-0.13053 0.2776362,-0.23002 0.454025,-0.29987 0.1767416,-0.0699 0.3732389,-0.10477 0.5891389,-0.10477 0.2162527,0 0.4131027,0.0349 0.5912557,0.10477 0.1778,0.0698 0.3302,0.16934 0.4572,0.29987 0.126647,0.13017 0.2247193,0.28892 0.2945693,0.47625 0.06985,0.18732 0.104775,0.39863 0.104775,0.63323 0,0.23636 -0.034925,0.44838 -0.104775,0.63571 -0.06985,0.18732 -0.1679223,0.34607 -0.2945693,0.47731 -0.127,0.13088 -0.2794,0.23106 -0.4572,0.30056 -0.178153,0.0706 -0.375003,0.10513 -0.5912557,0.10513 m 0,-0.46708 c 0.1344084,0 0.2522361,-0.0261 0.3545417,-0.0776 0.1019527,-0.0515 0.1866194,-0.12382 0.2536473,-0.2166 0.06738,-0.0924 0.1178277,-0.20356 0.1520471,-0.33232 0.03422,-0.12876 0.051153,-0.27058 0.051153,-0.4251 0,-0.23354 -0.038806,-0.43356 -0.1157113,-0.60078 -0.076905,-0.16757 -0.1788583,-0.28328 -0.3051527,-0.34854 -0.1259416,-0.0649 -0.2561166,-0.0977 -0.390525,-0.0977 -0.1326443,0 -0.2497666,0.0258 -0.34925,0.078 -0.099836,0.0515 -0.18415,0.12347 -0.252236,0.21625 -0.067381,0.0928 -0.1181806,0.20285 -0.1516946,0.33126 -0.033514,0.12806 -0.050447,0.26882 -0.050447,0.42157 0,0.15451 0.016933,0.29633 0.050447,0.4251 0.033514,0.12876 0.084314,0.23988 0.1516946,0.33231 0.068086,0.0928 0.1524,0.1651 0.252236,0.21661 0.099483,0.0515 0.2166057,0.0776 0.34925,0.0776"
         style="fill:#0a8ca9;fill-opacity:1;fill-rule:nonzero;stroke:none;stroke-width:0.35277775"
         id="path74-6"
         inkscape:connector-curvature="0" />
      <path
         d="m 13.14079,299.33788 c -0.155928,0 -0.303389,-0.01 -0.442736,-0.0293 -0.138289,-0.0198 -0.258233,-0.0459 -0.359128,-0.0797 v -0.48895 c 0.119592,0.0385 0.243417,0.0688 0.372534,0.0903 0.129116,0.0215 0.250119,0.0321 0.362655,0.0321 0.127353,0 0.2286,-0.012 0.303389,-0.036 0.07408,-0.0243 0.132292,-0.0547 0.17392,-0.0907 0.03351,-0.0307 0.06032,-0.0663 0.07973,-0.10583 0.0194,-0.0395 0.02893,-0.0843 0.02893,-0.1337 0,-0.0473 -0.0074,-0.0928 -0.02293,-0.13688 -0.01552,-0.0445 -0.04269,-0.084 -0.08149,-0.11889 -0.04339,-0.043 -0.14852,-0.0995 -0.316442,-0.16898 l -0.215194,-0.0871 c -0.09948,-0.0399 -0.184856,-0.0783 -0.256823,-0.11359 -0.07197,-0.0353 -0.123825,-0.0646 -0.155222,-0.0864 -0.0314,-0.0222 -0.06103,-0.0462 -0.08749,-0.0716 -0.07761,-0.0762 -0.136172,-0.15981 -0.175331,-0.24977 -0.03881,-0.09 -0.05856,-0.1912 -0.05856,-0.30374 0,-0.16404 0.05009,-0.31256 0.149225,-0.44626 0.09913,-0.13371 0.231422,-0.23037 0.396875,-0.29105 0.1651,-0.0603 0.337609,-0.0903 0.517525,-0.0903 0.172861,0 0.322792,0.009 0.449086,0.0279 0.126295,0.019 0.228248,0.0378 0.305859,0.0586 v 0.4692 c -0.06738,-0.0187 -0.12947,-0.0342 -0.188031,-0.0466 -0.05856,-0.012 -0.133703,-0.0236 -0.226836,-0.0353 -0.09243,-0.0113 -0.172861,-0.0169 -0.2413,-0.0169 -0.161572,0 -0.287867,0.0176 -0.379942,0.0522 -0.09172,0.0353 -0.14993,0.0787 -0.174272,0.13088 -0.02399,0.0522 -0.03598,0.10689 -0.03598,0.16333 0,0.0483 0.01058,0.0903 0.03281,0.12559 0.02258,0.0356 0.05327,0.0677 0.09313,0.097 0.03951,0.0289 0.08608,0.055 0.138995,0.0794 0.05292,0.024 0.110066,0.048 0.172155,0.0727 l 0.219428,0.0864 c 0.06279,0.024 0.119944,0.0483 0.171097,0.0716 0.05115,0.0236 0.09701,0.0469 0.138995,0.0702 0.04163,0.0236 0.07938,0.0476 0.112536,0.0727 0.03387,0.0251 0.06491,0.0512 0.09278,0.0794 0.0762,0.0765 0.131586,0.16193 0.1651,0.25612 0.03387,0.0938 0.05045,0.19791 0.05045,0.31221 0,0.14887 -0.02752,0.27905 -0.08255,0.38946 -0.05503,0.11078 -0.131234,0.2025 -0.229659,0.27482 -0.09807,0.0727 -0.215194,0.12665 -0.351366,0.16192 -0.136172,0.0356 -0.285045,0.0536 -0.445911,0.0536"
         style="fill:#0a8ca9;fill-opacity:1;fill-rule:nonzero;stroke:none;stroke-width:0.35277775"
         id="path78-9"
         inkscape:connector-curvature="0" />
      <path
         d="m 14.244986,299.28754 1.150056,-2.90795 h 0.644172 l 1.146175,2.90795 h -0.622652 l -0.255059,-0.66851 h -1.224844 l -0.255764,0.66851 z m 1.026937,-1.15394 h 0.850194 l -0.424744,-1.18815 z"
         style="fill:#0a8ca9;fill-opacity:1;fill-rule:nonzero;stroke:none;stroke-width:0.35277775"
         id="path82-8"
         inkscape:connector-curvature="0" />
      <path
         d="m 11.438498,298.04703 c 0.100894,-0.0455 0.188383,-0.10548 0.262114,-0.17921 0.07338,-0.0737 0.127,-0.16157 0.160161,-0.26282 0.03281,-0.1016 0.04939,-0.21449 0.04939,-0.33937 0,-0.12488 -0.01764,-0.2413 -0.05327,-0.3496 -0.03598,-0.10795 -0.09454,-0.20214 -0.176389,-0.28187 -0.0822,-0.0797 -0.189794,-0.14217 -0.323144,-0.18697 -0.133703,-0.0448 -0.297745,-0.0674 -0.492831,-0.0674 H 9.9504814 v 0.43674 h 0.5782026 0.291747 0.03951 l -0.0088,0.003 c 0.08149,0.003 0.157692,0.0183 0.226484,0.049 0.07691,0.0353 0.135114,0.0878 0.174977,0.15804 0.03916,0.0706 0.05891,0.15381 0.05891,0.24871 0,0.0554 -0.01023,0.11783 -0.03069,0.18838 -0.02082,0.0706 -0.07056,0.133 -0.149225,0.18768 -0.07832,0.054 -0.182386,0.0811 -0.31115,0.0811 h -0.291745 v -0.80398 L 9.9504992,297.156 v 2.13113 h 0.5782028 v -1.11795 h 0.15875 0.0949 c 0.03104,0 0.05821,-10e-4 0.0822,-0.004 l 0.660753,1.12148 h 0.680861 z"
         style="fill:#0a8ca9;fill-opacity:1;fill-rule:nonzero;stroke:none;stroke-width:0.35277775"
         id="path94-9"
         inkscape:connector-curvature="0" />
      <path
         d="m 6.5274769,298.18899 c -0.022578,-0.0907 -0.072672,-0.17639 -0.149225,-0.25682 -0.0762,-0.0804 -0.1785055,-0.14464 -0.3062111,-0.19121 0.1143,-0.0674 0.200025,-0.15063 0.257175,-0.25082 0.05715,-0.0998 0.085372,-0.2226 0.085372,-0.36724 0,-0.0889 -0.015875,-0.17604 -0.047272,-0.26212 -0.031397,-0.0857 -0.079728,-0.16228 -0.1435806,-0.2293 -0.036689,-0.0367 -0.085725,-0.0744 -0.1474611,-0.11395 -0.061383,-0.0395 -0.1464027,-0.0727 -0.2532944,-0.0988 -0.10795,-0.0261 -0.2391833,-0.0392 -0.3951111,-0.0392 H 4.4633741 v 0.43251 h 0.9101667 l -0.00141,7.1e-4 h 0.027517 c 0.07373,0 0.1354667,0.01 0.1852084,0.03 0.049742,0.0201 0.090664,0.0459 0.1227667,0.0765 0.037747,0.0378 0.064206,0.0804 0.080433,0.1277 0.016581,0.0476 0.023989,0.0974 0.023989,0.14994 0,0.054 -0.00882,0.10548 -0.026458,0.15416 -0.018344,0.049 -0.046567,0.0921 -0.085725,0.12982 -0.031044,0.0296 -0.070556,0.054 -0.1192389,0.0734 -0.047978,0.0201 -0.1083027,0.0293 -0.180975,0.0293 H 5.0412241 v -0.65899 l -0.57785,0.23143 v 2.13148 h 1.0470445 c 0.2081389,0 0.3781778,-0.0222 0.5104694,-0.0663 0.1322917,-0.0444 0.2384778,-0.10442 0.3182056,-0.18027 0.079728,-0.0755 0.1368777,-0.16475 0.17145,-0.266 0.033867,-0.1016 0.051153,-0.21237 0.051153,-0.33337 0,-0.078 -0.011642,-0.16193 -0.034219,-0.25259 m -0.6004278,0.40146 c -0.015875,0.0512 -0.043039,0.096 -0.082197,0.13512 -0.037747,0.0381 -0.086431,0.0674 -0.1449916,0.0892 -0.058914,0.0212 -0.1368778,0.0314 -0.2335389,0.0314 H 5.0412241 v -0.8255 h 0.4250973 c 0.096661,0 0.1749778,0.0123 0.2356555,0.0363 0.060325,0.0243 0.1090084,0.0554 0.1467556,0.0924 0.038805,0.0392 0.065969,0.0826 0.080433,0.13088 0.014817,0.0483 0.021872,0.0998 0.021872,0.15345 0,0.0536 -0.00776,0.10619 -0.023989,0.15664"
         style="fill:#0a8ca9;fill-opacity:1;fill-rule:nonzero;stroke:none;stroke-width:0.35277775"
         id="path98-8"
         inkscape:connector-curvature="0" />
      <path
         d="m 4.4510983,300.26541 v 0.32349 l 0.7831667,-0.32349 z"
         style="fill:#0a8ca9;fill-opacity:1;fill-rule:nonzero;stroke:none;stroke-width:0.35277775"
         id="path102-0"
         inkscape:connector-curvature="0" />
      <path
         d="m 5.7725333,302.2822 c -0.1083027,0 -0.2106083,-0.007 -0.3072694,-0.0201 -0.097014,-0.0131 -0.1802695,-0.031 -0.2504722,-0.054 v -0.33373 c 0.082903,0.0268 0.1696861,0.0473 0.2592916,0.0617 0.089606,0.0148 0.1739195,0.0219 0.2525889,0.0219 0.088547,0 0.1591028,-0.008 0.2109611,-0.0247 0.051506,-0.0166 0.092075,-0.0367 0.12065,-0.0617 0.023636,-0.0212 0.042333,-0.0452 0.055739,-0.072 0.013406,-0.0268 0.020108,-0.0572 0.020108,-0.0914 0,-0.0321 -0.00494,-0.0632 -0.015875,-0.0935 -0.010936,-0.03 -0.029633,-0.0568 -0.056444,-0.0808 -0.030339,-0.0293 -0.1037167,-0.0677 -0.2208389,-0.11536 l -0.1495778,-0.0593 c -0.069144,-0.0272 -0.1287638,-0.0529 -0.1788583,-0.0773 -0.049742,-0.0243 -0.085725,-0.0441 -0.10795,-0.0589 -0.021872,-0.0152 -0.041981,-0.0317 -0.061031,-0.0487 -0.053975,-0.0526 -0.094544,-0.109 -0.1220611,-0.17039 -0.026811,-0.0614 -0.040217,-0.13017 -0.040217,-0.20708 0,-0.11183 0.034219,-0.21343 0.1037167,-0.30445 0.068792,-0.091 0.1612194,-0.15698 0.2758722,-0.19861 0.1150055,-0.0409 0.2353027,-0.0614 0.3601861,-0.0614 0.12065,0 0.2250722,0.006 0.3129139,0.019 0.087489,0.0131 0.1587499,0.0261 0.2127249,0.0399 v 0.31997 c -0.046567,-0.013 -0.090311,-0.0233 -0.1305277,-0.0317 -0.041275,-0.008 -0.093486,-0.0162 -0.1580445,-0.0236 -0.064558,-0.008 -0.12065,-0.012 -0.168275,-0.012 -0.1121833,0 -0.200025,0.012 -0.2638777,0.0356 -0.064206,0.0236 -0.104775,0.0536 -0.1217084,0.0892 -0.016581,0.036 -0.025047,0.073 -0.025047,0.11112 0,0.0332 0.00741,0.0617 0.022931,0.0861 0.015169,0.0243 0.037042,0.0462 0.064911,0.0656 0.027164,0.0198 0.059619,0.0377 0.096308,0.0547 0.037042,0.0166 0.076906,0.0328 0.1199445,0.049 l 0.1527527,0.0593 c 0.043744,0.0162 0.083961,0.0324 0.1192389,0.0487 0.035631,0.0159 0.067733,0.0321 0.097014,0.048 0.028575,0.0162 0.05468,0.0325 0.078317,0.0494 0.022931,0.0169 0.044803,0.0353 0.064205,0.0543 0.05327,0.0522 0.091722,0.11042 0.1150056,0.17428 0.023636,0.0642 0.035278,0.13511 0.035278,0.21272 0,0.1016 -0.019403,0.19015 -0.057503,0.266 -0.038453,0.0751 -0.091722,0.13793 -0.1601611,0.18732 -0.067733,0.0494 -0.1495778,0.0861 -0.244475,0.11042 -0.094545,0.0243 -0.1982611,0.0363 -0.3104445,0.0363"
         style="fill:#0a8ca9;fill-opacity:1;fill-rule:nonzero;stroke:none;stroke-width:0.35277775"
         id="path114-0"
         inkscape:connector-curvature="0" />
      <path
         d="m 7.2511652,302.24798 v -1.65029 H 6.6496791 v -0.33232 h 1.6203084 v 0.33232 h -0.600075 v 1.65029 z"
         style="fill:#0a8ca9;fill-opacity:1;fill-rule:nonzero;stroke:none;stroke-width:0.35277775"
         id="path118-9"
         inkscape:connector-curvature="0" />
      <path
         d="m 8.0890133,302.24798 0.8001,-1.98261 h 0.4487334 l 0.7972773,1.98261 H 9.702266 l -0.1781527,-0.45579 h -0.852311 l -0.1778,0.45579 z M 8.803741,301.46129 H 9.3953494 L 9.099369,300.65096 Z"
         style="fill:#0a8ca9;fill-opacity:1;fill-rule:nonzero;stroke:none;stroke-width:0.35277775"
         id="path122-0"
         inkscape:connector-curvature="0" />
      <path
         d="m 10.295532,302.24798 v -1.98261 h 0.493536 l 0.807156,1.43722 v -1.43722 h 0.400756 v 1.98261 h -0.493184 l -0.805744,-1.43086 v 1.43086 z"
         style="fill:#0a8ca9;fill-opacity:1;fill-rule:nonzero;stroke:none;stroke-width:0.35277775"
         id="path126-8"
         inkscape:connector-curvature="0" />
      <path
         d="m 14.781985,302.29035 c -0.281164,0 -0.495653,-0.0649 -0.642761,-0.19438 -0.147109,-0.12912 -0.220487,-0.32138 -0.220487,-0.57573 v -1.25483 h 0.4191 v 1.24248 c 0,0.14464 0.03669,0.25365 0.109362,0.32667 0.07267,0.0734 0.18415,0.11007 0.334786,0.11007 0.153106,0 0.2667,-0.0367 0.340783,-0.11007 0.07408,-0.073 0.110773,-0.18203 0.110773,-0.32667 v -1.24248 h 0.4191 v 1.25483 c 0,0.25541 -0.07373,0.44767 -0.220839,0.57679 -0.147109,0.12876 -0.363714,0.19332 -0.649817,0.19332"
         style="fill:#0a8ca9;fill-opacity:1;fill-rule:nonzero;stroke:none;stroke-width:0.35277775"
         id="path138-1"
         inkscape:connector-curvature="0" />
      <path
         d="m 15.897114,302.24798 v -1.98261 h 0.4191 v 1.6503 h 0.881591 v 0.33231 z"
         style="fill:#0a8ca9;fill-opacity:1;fill-rule:nonzero;stroke:none;stroke-width:0.35277775"
         id="path142-4"
         inkscape:connector-curvature="0" />
      <path
         d="m 4.4510269,300.79824 v 1.44957 h 0.4187472 v -1.60832 z"
         style="fill:#0a8ca9;fill-opacity:1;fill-rule:nonzero;stroke:none;stroke-width:0.35277775"
         id="path146-0"
         inkscape:connector-curvature="0" />
      <path
         d="m 13.719241,301.49896 c -0.01587,-0.0614 -0.05045,-0.11994 -0.103717,-0.17498 -0.05292,-0.055 -0.124178,-0.0984 -0.213078,-0.13052 0.07973,-0.0455 0.138995,-0.10266 0.178506,-0.1711 0.03986,-0.0681 0.05962,-0.15134 0.05962,-0.25047 0,-0.0603 -0.01093,-0.11995 -0.03281,-0.17851 -0.02187,-0.0582 -0.05574,-0.11042 -0.09984,-0.15628 -0.0254,-0.0247 -0.05962,-0.0508 -0.102659,-0.0776 -0.04269,-0.0268 -0.1016,-0.0494 -0.176741,-0.0674 -0.07444,-0.0176 -0.166159,-0.0268 -0.274461,-0.0268 h -0.671336 v 0.29528 h 0.401813 0.249767 c 0.05115,0 0.09419,0.007 0.128764,0.0205 0.03457,0.0141 0.0635,0.0314 0.08573,0.0522 0.02575,0.0258 0.04516,0.0547 0.05609,0.0871 0.01129,0.0328 0.01658,0.067 0.01658,0.10265 0,0.036 -0.006,0.0713 -0.0187,0.10478 -0.0127,0.0335 -0.03246,0.0632 -0.05962,0.0885 -0.02152,0.0201 -0.04904,0.037 -0.0829,0.0501 -0.03351,0.0131 -0.07514,0.0201 -0.125942,0.0201 h -0.249768 v -0.44732 l -0.401813,0.1591 v 1.44956 h 0.728486 c 0.144991,0 0.263525,-0.0152 0.3556,-0.0452 0.09207,-0.0303 0.165805,-0.0713 0.221191,-0.12312 0.05574,-0.0519 0.0956,-0.11218 0.119592,-0.18097 0.02328,-0.0691 0.03563,-0.14499 0.03563,-0.22754 0,-0.0529 -0.0085,-0.11007 -0.02399,-0.17216 m -0.417689,0.27411 c -0.01129,0.0346 -0.03069,0.0656 -0.0575,0.0917 -0.02611,0.0257 -0.05962,0.0455 -0.100894,0.0603 -0.04092,0.0148 -0.09525,0.0222 -0.162983,0.0222 h -0.295628 v -0.56303 h 0.295628 c 0.06773,0 0.122061,0.008 0.164394,0.0247 0.04198,0.0166 0.0762,0.0374 0.102306,0.0632 0.02681,0.0268 0.04586,0.0561 0.05609,0.0892 0.01058,0.0332 0.01587,0.0677 0.01587,0.10442 0,0.0367 -0.0056,0.0723 -0.01728,0.10724"
         style="fill:#0a8ca9;fill-opacity:1;fill-rule:nonzero;stroke:none;stroke-width:0.35277775"
         id="path158-4"
         inkscape:connector-curvature="0" />
    </g>
  </g>
</svg>
