<svg xmlns="http://www.w3.org/2000/svg" viewBox="0 0 106.1 42" fill="currentColor">
 <g>
  <polygon points="14.7,34.2 4,19.2 0,19.2 0,41.5 4.3,41.5 4.3,26.5 15,41.5 19,41.5 19,19.2 14.7,19.2"/>
  <polygon points="43.8,19.2 38.6,19.2 33,28.4 27.2,19.2 21.7,19.2 30.4,32.4 30.4,41.5 35,41.5 35,32.5"/>
  <path d="M56,28.4l-2.6-0.6c-3-0.7-3.7-1.2-3.7-2.6c0-1.3,1.3-2.5,3.8-2.5c2.2,0,4.4,0.7,6.1,2.2l2.7-3.6c-2.5-2.1-5.7-2.8-8.6-2.8c-5.2,0-8.9,3.1-8.9,7.1c0,3.2,2.1,5.2,6.5,6.1l2.6,0.5c3,0.6,4.1,1.7,4.1,3c0,1.8-1.5,2.6-4,2.6c-2.4,0-4.7-0.8-6.8-3l-2.8,3.4c2.1,2.5,5.9,3.6,9.5,3.6c5.4,0,8.8-2.6,8.8-6.9C62.6,31.4,60.3,29.5,56,28.4z"/>
  <path d="M70.1,32.3c0.7,3.3,3.3,5.6,6.7,5.6c2.5,0,4.4-1.1,5.8-3.1l3.2,2.7c-2.1,2.9-5.5,4.6-9.1,4.5c-7.1,0-11.6-5.1-11.6-11.7s4.5-11.7,11-11.7c4.8,0,11.5,3.4,10.4,13.6L70.1,32.3z M82.2,28.7c-0.5-4.6-3.4-5.9-5.4-5.9c-3.4,0-5.9,2.1-6.7,5.9L82.2,28.7z"/>
  <polygon points="84.2,6.7 99.4,6.7 99.4,21.9 106.1,21.9 106.1,0 84.2,0"/>
 </g>
</svg>